<svg width="52" height="52" viewBox="0 0 52 52" fill="none" xmlns="http://www.w3.org/2000/svg">
<g filter="url(#filter0_d_201_1684)">
<rect x="2" y="1" width="48" height="48" rx="10" fill="#000821"/>
<rect x="2.5" y="1.5" width="47" height="47" rx="9.5" stroke="#2550E8"/>
<path d="M26.9999 15L18.0933 25.6879C17.7445 26.1064 17.5701 26.3157 17.5674 26.4925C17.5651 26.6461 17.6336 26.7923 17.7531 26.8889C17.8906 27 18.163 27 18.7079 27H25.9999L24.9999 35L33.9064 24.3121C34.2552 23.8936 34.4296 23.6843 34.4323 23.5075C34.4346 23.3539 34.3661 23.2077 34.2466 23.1111C34.1091 23 33.8367 23 33.2918 23H25.9999L26.9999 15Z" fill="url(#paint0_linear_201_1684)" stroke="url(#paint1_linear_201_1684)" stroke-width="2" stroke-linecap="round" stroke-linejoin="round"/>
</g>
<defs>
<filter id="filter0_d_201_1684" x="0" y="0" width="52" height="52" filterUnits="userSpaceOnUse" color-interpolation-filters="sRGB">
<feFlood flood-opacity="0" result="BackgroundImageFix"/>
<feColorMatrix in="SourceAlpha" type="matrix" values="0 0 0 0 0 0 0 0 0 0 0 0 0 0 0 0 0 0 127 0" result="hardAlpha"/>
<feOffset dy="1"/>
<feGaussianBlur stdDeviation="1"/>
<feColorMatrix type="matrix" values="0 0 0 0 0.0627451 0 0 0 0 0.0941176 0 0 0 0 0.156863 0 0 0 0.05 0"/>
<feBlend mode="normal" in2="BackgroundImageFix" result="effect1_dropShadow_201_1684"/>
<feBlend mode="normal" in="SourceGraphic" in2="effect1_dropShadow_201_1684" result="shape"/>
</filter>
<linearGradient id="paint0_linear_201_1684" x1="9.34779" y1="4.71237" x2="64.2453" y2="52.2297" gradientUnits="userSpaceOnUse">
<stop offset="0.184358" stop-color="#29ABE2"/>
<stop offset="0.821198" stop-color="#6200D2"/>
</linearGradient>
<linearGradient id="paint1_linear_201_1684" x1="9.34779" y1="4.71237" x2="64.2453" y2="52.2297" gradientUnits="userSpaceOnUse">
<stop offset="0.184358" stop-color="#29ABE2"/>
<stop offset="0.821198" stop-color="#6200D2"/>
</linearGradient>
</defs>
</svg>
