<svg width="56" height="56" viewBox="0 0 56 56" fill="none" xmlns="http://www.w3.org/2000/svg">
<g clip-path="url(#clip0_423_1005)">
<path d="M50.5475 19.9806C51.51 18.9306 52.0974 17.5339 52.0974 16.0016C52.0974 12.7498 49.4494 10.1041 46.1933 10.1041C42.9372 10.1041 40.2893 12.7498 40.2893 16.0016C40.2893 18.7983 42.2482 21.1444 44.8666 21.747C44.8393 21.7744 44.813 21.8006 44.7857 21.828L38.8608 27.7484H31.9308C30.3372 27.7484 29.0411 29.0434 29.0411 30.6359C29.0411 31.0395 29.1243 31.4234 29.2752 31.7734H26.7202C26.87 31.4245 26.9543 31.0395 26.9543 30.6359C26.9543 29.0445 25.6582 27.7484 24.0646 27.7484H17.1346L11.2097 21.828C11.1835 21.8017 11.1561 21.7744 11.1299 21.7481C13.7505 21.1455 15.7105 18.7994 15.7105 16.0027C15.7105 12.7509 13.0604 10.1052 9.80316 10.1052C6.54816 10.1052 3.8991 12.7509 3.8991 16.0027C3.8991 17.535 4.48754 18.9317 5.44895 19.9817C3.97348 20.5636 2.92676 22.0019 2.92676 23.6797V39.7086C2.92676 41.4881 4.37598 42.9362 6.1577 42.9362H14.0239V52.7734C14.0239 54.553 15.4732 56.0011 17.2549 56.0011C19.0366 56.0011 20.4858 54.553 20.4858 52.7734V39.7075C20.4858 39.1748 20.3557 38.6728 20.126 38.2298H27.1249V51.5812H25.6505C24.4299 51.5812 23.4379 52.5722 23.4379 53.7895V55.125C23.4379 55.6084 23.8294 56 24.3128 56H31.6891C32.1725 56 32.5641 55.6084 32.5641 55.125V53.7884C32.5641 52.5711 31.571 51.5802 30.3514 51.5802H28.8749V38.2287H35.8694C35.6397 38.6717 35.5096 39.1748 35.5096 39.7064V52.7713C35.5096 54.5508 36.9588 55.9989 38.7405 55.9989C40.5222 55.9989 41.9714 54.5508 41.9714 52.7713V42.9341H49.8377C51.6194 42.9341 53.0686 41.4859 53.0686 39.7064V23.6786C53.0697 21.9997 52.023 20.5625 50.5475 19.9806ZM30.813 53.7884V54.25H25.1868V53.7884C25.1868 53.5358 25.3946 53.3302 25.6494 53.3302H30.3493C30.6052 53.3302 30.813 53.5358 30.813 53.7884ZM42.0403 16.0016C42.0403 13.7145 43.9041 11.8541 46.1944 11.8541C48.4847 11.8541 50.3485 13.7145 50.3485 16.0016C50.3485 18.2886 48.4847 20.1491 46.1944 20.1491C43.9041 20.1491 42.0403 18.2886 42.0403 16.0016ZM30.7933 30.6348C30.7933 30.0081 31.3041 29.4973 31.933 29.4973H39.225C39.4569 29.4973 39.6789 29.4055 39.843 29.2414L46.0249 23.065C46.8539 22.2359 47.6371 21.4528 49.0907 21.4528C50.32 21.4528 51.3197 22.4514 51.3197 23.6786V36.4798H45.4703V29.3125L47.5386 27.2464C47.881 26.9052 47.881 26.3506 47.5397 26.0094C47.1985 25.667 46.6439 25.667 46.3027 26.0083L40.9422 31.3622C40.6633 31.6433 40.3461 31.7734 39.9458 31.7734H31.9341C31.3041 31.7723 30.7933 31.2627 30.7933 30.6348ZM40.8197 36.4787V33.4031C41.3294 33.2598 41.791 32.9875 42.1803 32.597L43.7203 31.0592V36.4787H40.8197ZM12.2794 36.4787V31.0592L13.8172 32.5948C14.2077 32.9875 14.6693 33.2598 15.18 33.4031V36.4787H12.2794ZM16.93 33.5223H39.0708V36.4787H16.93V33.5223ZM9.80535 11.8541C12.0979 11.8541 13.9627 13.7145 13.9627 16.0016C13.9627 18.2886 12.0979 20.1491 9.80535 20.1491C7.51504 20.1491 5.65129 18.2886 5.65129 16.0016C5.65129 13.7145 7.51504 11.8541 9.80535 11.8541ZM6.9091 21.4528C8.3616 21.4528 9.14473 22.2359 9.97379 23.065L16.1557 29.2425C16.3197 29.4066 16.5418 29.4984 16.7736 29.4984H24.0657C24.6946 29.4984 25.2054 30.0081 25.2054 30.6359C25.2054 31.2627 24.6946 31.7734 24.0657 31.7734H16.0539C15.6525 31.7734 15.3364 31.6422 15.0554 31.36L9.69707 26.0083C9.35582 25.667 8.80129 25.667 8.46004 26.0094C8.11879 26.3517 8.11879 26.9052 8.46113 27.2464L10.5294 29.3125V36.4798H4.68004V23.6786C4.68004 22.4514 5.67973 21.4528 6.9091 21.4528ZM18.7402 39.7075V52.7723C18.7402 53.5872 18.0752 54.25 17.2593 54.25C16.4433 54.25 15.7783 53.5872 15.7783 52.7723V42.0602C15.7783 41.5767 15.3868 41.1852 14.9033 41.1852H6.16098C5.34395 41.1852 4.68004 40.5223 4.68004 39.7075V38.2298H17.2593C18.0763 38.2287 18.7402 38.8916 18.7402 39.7075ZM51.3197 39.7075C51.3197 40.5223 50.6547 41.1852 49.8388 41.1852H41.0975C40.6141 41.1852 40.2225 41.5767 40.2225 42.0602V52.7723C40.2225 53.5872 39.5575 54.25 38.7416 54.25C37.9257 54.25 37.2607 53.5872 37.2607 52.7723V39.7075C37.2607 38.8927 37.9257 38.2298 38.7416 38.2298H51.3208V39.7075H51.3197ZM18.7643 15.8506H19.3385V18.0173C19.3385 18.3542 19.5321 18.6605 19.835 18.8059C19.9554 18.8639 20.0844 18.8923 20.2135 18.8923C20.4093 18.8923 20.6029 18.8267 20.7614 18.6998L24.3118 15.8506H28.6944C30.0277 15.8506 31.1127 14.7667 31.1127 13.4345V12.7345H31.6869L35.2372 15.5837C35.3958 15.7106 35.5894 15.7763 35.7852 15.7763C35.9143 15.7763 36.0433 15.7478 36.1636 15.6898C36.4666 15.5444 36.6602 15.237 36.6602 14.9013V12.7345H37.2377C38.5688 12.7345 39.6527 11.6517 39.6527 10.3217V2.41609C39.6527 1.08391 38.5699 0 37.2377 0H27.3043C25.971 0 24.886 1.08391 24.886 2.41609V3.11609H18.7643C17.431 3.11609 16.346 4.2 16.346 5.53219V13.4345C16.3471 14.7667 17.431 15.8506 18.7643 15.8506ZM26.6371 2.41609C26.6371 2.05516 26.9433 1.75 27.3053 1.75H37.2388C37.5986 1.75 37.9038 2.05516 37.9038 2.41609V10.3217C37.9038 10.687 37.6052 10.9845 37.2388 10.9845H35.7863C35.3028 10.9845 34.9113 11.3761 34.9113 11.8595V13.0769L32.5433 11.177C32.388 11.0523 32.1944 10.9845 31.9953 10.9845H31.1138V5.53219C31.1138 4.2 30.0288 3.11609 28.6955 3.11609H26.6371V2.41609ZM18.0971 5.53219C18.0971 5.16469 18.3968 4.86609 18.7654 4.86609H28.6955C29.0641 4.86609 29.3638 5.16469 29.3638 5.53219V13.4345C29.3638 13.7955 29.0575 14.1006 28.6955 14.1006H24.0044C23.8054 14.1006 23.6118 14.1684 23.4564 14.2931L21.0885 16.193V14.9756C21.0885 14.4922 20.6969 14.1006 20.2135 14.1006H18.7643C18.3957 14.1006 18.096 13.802 18.096 13.4345V5.53219H18.0971ZM19.5966 10.8948C19.5966 10.4114 19.9882 10.0198 20.4716 10.0198H26.9871C27.4705 10.0198 27.8621 10.4114 27.8621 10.8948C27.8621 11.3783 27.4705 11.7698 26.9871 11.7698H20.4716C19.9893 11.7698 19.5966 11.3783 19.5966 10.8948ZM21.8169 8.07078C21.8169 7.58734 22.2085 7.19578 22.6919 7.19578H26.9882C27.4716 7.19578 27.8632 7.58734 27.8632 8.07078C27.8632 8.55422 27.4716 8.94578 26.9882 8.94578H22.6919C22.2085 8.94578 21.8169 8.55422 21.8169 8.07078ZM19.5977 8.07078C19.5977 7.58734 19.9893 7.19578 20.4727 7.19578H20.4738C20.9572 7.19578 21.3488 7.58734 21.3488 8.07078C21.3488 8.55422 20.9572 8.94578 20.4738 8.94578C19.9904 8.94578 19.5977 8.55422 19.5977 8.07078Z" fill="url(#paint0_linear_423_1005)"/>
</g>
<defs>
<linearGradient id="paint0_linear_423_1005" x1="-21.5112" y1="-28.8059" x2="133.258" y2="113.438" gradientUnits="userSpaceOnUse">
<stop offset="0.184358" stop-color="#29ABE2"/>
<stop offset="0.821198" stop-color="#6200D2"/>
</linearGradient>
<clipPath id="clip0_423_1005">
<rect width="56" height="56" fill="white"/>
</clipPath>
</defs>
</svg>
