<svg width="48" height="48" viewBox="0 0 48 48" fill="none" xmlns="http://www.w3.org/2000/svg">
<g clip-path="url(#clip0_125_1320)">
<path d="M46.5938 21.9188H42.828C42.7141 21.9188 42.6013 21.9236 42.4893 21.9309C41.6433 21.1761 40.7076 20.5529 39.7068 20.0728C41.9894 18.4515 43.4813 15.7874 43.4813 12.7811C43.4813 7.85303 39.472 3.84375 34.5439 3.84375C29.6155 3.84375 25.6062 7.85303 25.6062 12.7811C25.6062 15.1494 26.5327 17.3053 28.0415 18.906H21.4651C22.9739 17.3053 23.9 15.1494 23.9 12.7811C23.9 7.85303 19.8907 3.84375 14.9626 3.84375C10.0345 3.84375 6.0249 7.85303 6.0249 12.7811C6.0249 15.5449 7.28613 18.0194 9.26294 19.6604C7.89404 20.172 6.62402 20.937 5.51038 21.9309C5.39832 21.9236 5.28589 21.9188 5.172 21.9188H1.40625C0.629517 21.9188 0 22.5483 0 23.3251V30.8562C0 31.6329 0.629517 32.2625 1.40625 32.2625H1.50623V42.9064C1.50623 43.6827 2.13574 44.3126 2.91248 44.3126H45.0875C45.8643 44.3126 46.4938 43.6827 46.4938 42.9064V32.2625H46.5938C47.3705 32.2625 48 31.6329 48 30.8562V23.3251C48 22.5483 47.3705 21.9188 46.5938 21.9188ZM45.1875 29.45H42.828C41.5272 29.45 40.4685 28.3916 40.4685 27.0905C40.4685 25.7897 41.5272 24.7313 42.828 24.7313H45.1875V29.45ZM28.4187 12.7811C28.4187 9.40393 31.1664 6.65625 34.5436 6.65625C37.9208 6.65625 40.6688 9.40393 40.6688 12.7811C40.6688 16.1587 37.9211 18.906 34.5439 18.906C31.1664 18.906 28.4187 16.1587 28.4187 12.7811ZM14.9626 6.65625C18.3398 6.65625 21.0875 9.40393 21.0875 12.7811C21.0875 16.1583 18.3398 18.906 14.9626 18.906C11.5851 18.906 8.8374 16.1587 8.8374 12.7811C8.8374 9.40393 11.5851 6.65625 14.9626 6.65625ZM2.8125 24.7313H5.172C6.47278 24.7313 7.53149 25.7897 7.53149 27.0908C7.53149 28.3916 6.47278 29.45 5.172 29.45H2.8125V24.7313ZM4.31873 32.2625H5.172C8.02368 32.2625 10.344 29.9425 10.344 27.0905C10.344 25.5114 9.63135 24.0959 8.51221 23.1467H8.54553C9.99902 22.2169 11.6895 21.7189 13.4564 21.7189H26.8521C24.2498 23.9125 22.5938 27.1945 22.5938 30.8562V41.5001H10.3436V35.3749C10.3436 34.5985 9.71411 33.9686 8.93738 33.9686C8.16101 33.9686 7.53113 34.5985 7.53113 35.3749V41.4998H4.31873V32.2625ZM43.6813 41.4998H40.4685V35.3749C40.4685 34.5985 39.839 33.9686 39.0623 33.9686C38.2859 33.9686 37.656 34.5985 37.656 35.3749V41.4998H25.4062V30.8562C25.4062 25.8179 29.5052 21.7189 34.5439 21.7189C36.319 21.7189 38.0164 22.2213 39.4735 23.1588C38.3624 24.1084 37.6564 25.5179 37.6564 27.0908C37.6564 29.9425 39.9763 32.2625 42.8284 32.2625H43.6813V41.4998Z" fill="url(#paint0_linear_125_1320)"/>
</g>
<defs>
<linearGradient id="paint0_linear_125_1320" x1="-23.3941" y1="-16.9727" x2="86.7089" y2="117.076" gradientUnits="userSpaceOnUse">
<stop offset="0.184358" stop-color="#29ABE2"/>
<stop offset="0.821198" stop-color="#6200D2"/>
</linearGradient>
<clipPath id="clip0_125_1320">
<rect width="48" height="48" fill="white"/>
</clipPath>
</defs>
</svg>
