<?xml version="1.0" encoding="UTF-8"?>
<svg xmlns="http://www.w3.org/2000/svg" width="48" height="48" viewBox="0 0 48 48" fill="none">
  <g clip-path="url(#clip0_134_477)">
    <path d="M5.62574 23.3561V40.9678C5.62574 41.7444 6.25534 42.374 7.03194 42.374H13.4044C15.6943 45.7634 19.589 47.9988 24.0001 47.9988C28.4111 47.9988 32.3058 45.7634 34.5958 42.374H40.9682C41.7448 42.374 42.3744 41.7444 42.3744 40.9678V23.3557C44.0658 23.9523 45.9945 23.4189 47.1237 21.9516C48.5417 20.1091 48.2068 17.4615 46.3506 16.0336L42.3744 12.9862V4.21921C42.3744 3.44261 41.7448 2.81301 40.9682 2.81301H35.3434C34.5668 2.81301 33.9372 3.44261 33.9372 4.21921V6.51984L26.5723 0.875271C25.0578 -0.289717 22.9422 -0.289717 21.4299 0.873771L1.64761 16.0351C-0.200512 17.4567 -0.545968 20.1033 0.876448 21.9516C2.00787 23.4217 3.93793 23.9514 5.62574 23.3561ZM24.0001 45.1864C18.5208 45.1864 14.0629 40.7707 14.0629 35.3431C14.0629 29.8638 18.5208 25.4059 24.0001 25.4059C29.4794 25.4059 33.9372 29.8638 33.9372 35.3431C33.9372 40.7707 29.4795 45.1864 24.0001 45.1864ZM39.562 39.5616H36.0203C36.492 38.2415 36.7496 36.8216 36.7496 35.3431C36.7496 28.3331 30.9816 22.5935 24.0001 22.5935C17.0179 22.5935 11.2505 28.3336 11.2505 35.3431C11.2505 36.8216 11.5081 38.2415 11.9798 39.5616H8.43814V21.4612L24.0001 9.53904L39.562 21.4612V39.5616ZM36.7496 5.62541H39.562V10.8308L36.7496 8.67536V5.62541ZM3.36036 18.2658L23.1427 3.10447C23.6476 2.71608 24.3527 2.71617 24.8594 3.10597L44.6379 18.2643C45.254 18.7383 45.369 19.6204 44.8948 20.2364C44.4223 20.8507 43.5377 20.9661 42.9232 20.4934C42.9224 20.4929 30.476 10.9495 24.8553 6.65137C24.603 6.45806 24.3016 6.36141 24.0002 6.36141C23.6987 6.36141 23.3973 6.45806 23.145 6.65137C21.9497 7.56709 5.82983 19.9167 5.07714 20.4934C4.46282 20.966 3.57832 20.8508 3.10546 20.2364C2.63054 19.6195 2.74791 18.737 3.36036 18.2658Z" fill="url(#paint0_linear_134_477)"></path>
    <path d="M27.9272 31.5363L21.8905 37.573L20.0724 35.7549C19.5233 35.2057 18.6329 35.2057 18.0838 35.7549C17.5346 36.304 17.5346 37.1943 18.0838 37.7435L20.8961 40.5559C21.1707 40.8305 21.5306 40.9677 21.8904 40.9677C22.2502 40.9677 22.6102 40.8305 22.8847 40.5559L29.9157 33.5249C30.4649 32.9757 30.4649 32.0854 29.9157 31.5363C29.3667 30.9871 28.4763 30.9871 27.9272 31.5363Z" fill="url(#paint1_linear_134_477)"></path>
  </g>
  <defs>
    <linearGradient id="paint0_linear_134_477" x1="-23.3941" y1="-24.6877" x2="109.683" y2="111.918" gradientUnits="userSpaceOnUse">
      <stop offset="0.184358" stop-color="#29ABE2"></stop>
      <stop offset="0.821198" stop-color="#6200D2"></stop>
    </linearGradient>
    <linearGradient id="paint1_linear_134_477" x1="11.5038" y1="26.0612" x2="37.7866" y2="60.7476" gradientUnits="userSpaceOnUse">
      <stop offset="0.184358" stop-color="#29ABE2"></stop>
      <stop offset="0.821198" stop-color="#6200D2"></stop>
    </linearGradient>
    <clipPath id="clip0_134_477">
      <rect width="48" height="48" fill="white"></rect>
    </clipPath>
  </defs>
</svg>
