<?xml version="1.0" encoding="UTF-8"?>
<svg xmlns="http://www.w3.org/2000/svg" width="50" height="50" viewBox="0 0 50 50" fill="none">
  <g clip-path="url(#clip0_134_474)">
    <path d="M1.34344 26.1961C2.03314 27.8308 3.62606 28.8801 5.40167 28.8692L9.36607 28.8449L9.47902 47.2207C9.48538 48.2563 10.33 49.0906 11.3656 49.0843L38.4606 48.9177C39.4962 48.9114 40.3305 48.0667 40.3242 47.0311L40.2112 28.6553L44.6444 28.628C46.4215 28.6171 48.002 27.5471 48.6708 25.902C49.3387 24.259 48.9541 22.3924 47.6846 21.1404L28.7288 2.62012C27.6247 1.53116 26.1803 0.992297 24.7386 1.00116C23.2965 1.01002 21.8571 1.56745 20.7653 2.67103L14.7832 8.73493C14.0559 9.47211 14.064 10.6594 14.8013 11.3867C15.5384 12.1139 16.7257 12.106 17.453 11.3686L23.4332 5.30657C24.1627 4.56918 25.357 4.56184 26.1018 5.29636L45.0575 23.8168C45.301 24.057 45.2676 24.3152 45.1967 24.4896C45.1381 24.6336 44.9855 24.8757 44.6213 24.878L38.3131 24.9167C37.2775 24.9231 36.4432 25.7677 36.4495 26.8033L36.5625 45.1791L13.2177 45.3226L13.1047 26.9467C13.0984 25.9111 12.2537 25.0768 11.2181 25.0832L5.37862 25.1191C5.01476 25.1213 4.85915 24.8815 4.79873 24.7383C4.72557 24.5649 4.68882 24.3073 4.92866 24.0641L11.032 17.8773C11.7592 17.1401 11.7512 15.9528 11.0139 15.2256C10.2767 14.4984 9.08949 14.5063 8.36214 15.2437L2.25866 21.4306C1.01391 22.6927 0.654689 24.5633 1.34344 26.1961Z" fill="url(#paint0_linear_134_474)"></path>
    <g clip-path="url(#clip1_134_474)">
      <path d="M22.6375 37.9318L22.6438 38.9673C22.6502 40.0029 23.4948 40.8372 24.5304 40.8308C25.5661 40.8245 26.4004 39.9798 26.394 38.9442L26.3873 37.8585C28.9645 37.4839 30.8742 35.3602 30.8581 32.7288L30.851 31.5888C30.8423 30.1719 30.2796 28.8518 29.2665 27.8716C28.2674 26.9049 26.9419 26.3773 25.5343 26.386L23.8161 26.3965C22.99 26.4016 22.2877 25.676 22.2824 24.8121L22.2782 24.1282C22.273 23.2887 22.9243 22.6517 23.793 22.6464L25.4179 22.6364C25.8954 22.6334 26.3913 22.9501 26.3946 23.4851C26.401 24.5207 27.2456 25.355 28.2812 25.3486C29.3168 25.3423 30.1512 24.4976 30.1448 23.462C30.131 21.2148 28.46 19.3498 26.2712 18.9615L26.2638 17.7558C26.2574 16.7202 25.4128 15.8858 24.3772 15.8922C23.3416 15.8986 22.5072 16.7432 22.5136 17.7788L22.5214 19.0491C21.5947 19.2738 20.7475 19.7417 20.0622 20.4206C19.0642 21.4092 18.5193 22.7342 18.528 24.1513L18.5322 24.8351C18.5503 27.7818 20.931 30.1646 23.8391 30.1467L25.5575 30.1361C26.4179 30.1308 27.0959 30.779 27.101 31.6119L27.108 32.7518C27.1137 33.6751 26.3447 34.1629 25.5822 34.1676L22.7898 34.1847C22.3431 34.1875 21.861 33.9337 21.8575 33.3702C21.8511 32.3346 21.0065 31.5002 19.9709 31.5066C18.9353 31.513 18.101 32.3576 18.1073 33.3932C18.1227 35.8985 20.0986 37.8601 22.6375 37.9318Z" fill="url(#paint1_linear_134_474)"></path>
    </g>
  </g>
  <defs>
    <linearGradient id="paint0_linear_134_474" x1="72.6895" y1="73.3981" x2="-61.232" y2="-62.3792" gradientUnits="userSpaceOnUse">
      <stop offset="0.184358" stop-color="#29ABE2"></stop>
      <stop offset="0.821198" stop-color="#6200D2"></stop>
    </linearGradient>
    <linearGradient id="paint1_linear_134_474" x1="11.705" y1="3.14162" x2="68.8205" y2="32.6788" gradientUnits="userSpaceOnUse">
      <stop offset="0.184358" stop-color="#29ABE2"></stop>
      <stop offset="0.821198" stop-color="#6200D2"></stop>
    </linearGradient>
    <clipPath id="clip0_134_474">
      <rect width="48" height="48" fill="white" transform="translate(49.147 48.8521) rotate(179.648)"></rect>
    </clipPath>
    <clipPath id="clip1_134_474">
      <rect width="12.9076" height="25.017" fill="white" transform="matrix(-1 0 0 -1 30.9077 40.87)"></rect>
    </clipPath>
  </defs>
</svg>
