<svg width="52" height="48" viewBox="0 0 52 48" fill="none" xmlns="http://www.w3.org/2000/svg">
<path d="M29.8791 23.7579L30.7401 24.6649C30.7717 24.6982 30.7717 24.7525 30.7401 24.7858L22.7341 33.2239C22.7098 33.2496 22.6729 33.256 22.6421 33.2406L18.4861 31.1549C18.4574 31.1403 18.4237 31.145 18.3994 31.1664L7.52837 40.7145C7.51013 40.7307 7.49919 40.7546 7.49919 40.7798V46.0783C7.61143 47.4837 7.49919 48 9.11993 48H43.1553C44.5722 48 44.6598 47.4004 44.7756 46.0821C44.776 46.0795 44.7761 46.0804 44.7761 46.0778V26.0067C44.7761 25.1535 45.1403 25.007 45.9888 24.9391C45.9896 24.9391 45.9912 24.9391 45.9928 24.9391H50.4486C51.8668 24.9391 52.6771 22.3768 51.259 20.8821C49.8477 19.3947 28.5776 0.781946 28.3677 0.598313C28.3613 0.592761 28.3621 0.595324 28.3544 0.591908C26.6247 -0.141771 25.6494 -0.2511 23.9188 0.592331C23.9128 0.595321 23.9063 0.599167 23.901 0.603865L2.23181 19.6009C0.216834 21.4334 0.0511137 21.7362 0.0033021 22.5903C-0.0441043 23.4414 0.415374 24.7345 1.61188 25.1483C1.61998 25.1509 1.62849 25.1526 1.637 25.1526H6.27757C6.28162 25.1526 6.28567 25.1526 6.28972 25.1535C7.06362 25.2752 7.49919 25.5818 7.49919 26.4338V36.0754C7.49919 36.1484 7.58023 36.183 7.6329 36.1356L18.6004 26.2574C18.6255 26.2348 18.6612 26.2305 18.6903 26.2467L23.2487 28.7535C23.2803 28.7706 23.3184 28.7646 23.3435 28.7382L32.9735 18.5884C33.003 18.5572 33.0504 18.5546 33.0829 18.5833L34.1384 19.5104C34.1854 19.5514 34.2567 19.5253 34.2697 19.4626L35.4301 13.7537C35.4426 13.6926 35.3904 13.6384 35.3324 13.6525L29.5213 15.0818C29.4593 15.0972 29.4374 15.1779 29.4824 15.2253L30.5383 16.3382C30.5695 16.3711 30.5699 16.4249 30.5387 16.4582L22.7357 24.8934C22.711 24.9203 22.6721 24.9271 22.6401 24.9096L18.4861 22.6159C18.4574 22.6001 18.4229 22.6035 18.3978 22.6249L10.6698 29.0995C10.6167 29.1439 10.5381 29.105 10.5381 29.0333V25.1526C10.5381 23.0588 8.56402 21.8477 5.26663 21.5397C5.19411 21.5329 5.16412 21.4372 5.21963 21.3881L24.3098 4.44479C24.3127 4.4418 24.3163 4.43923 24.3196 4.4371C25.4504 3.71068 26.1757 3.6116 27.7494 4.43581C27.7551 4.4388 27.7608 4.44265 27.7661 4.44735L46.6415 21.3787C46.6982 21.4296 46.6638 21.5274 46.5897 21.5303C42.6573 21.7054 41.332 23.283 41.332 26.2203V44.5071C41.332 44.5541 41.3 44.5836 41.255 44.5836H11.1458C10.7407 44.5836 10.7293 44.4939 10.7407 44.1565V41.6343C10.7407 41.6087 10.7516 41.5848 10.7702 41.5686L18.803 34.5837C18.8281 34.5619 18.8634 34.5581 18.8921 34.5739L23.4509 37.0807C23.4825 37.0982 23.5209 37.0918 23.5461 37.0649L32.9735 26.9172C33.003 26.8852 33.0509 26.8826 33.0833 26.9112L34.1412 27.8405C34.1874 27.8811 34.2579 27.8563 34.2721 27.7948L35.6262 21.8822C35.6408 21.8178 35.5833 21.761 35.5233 21.7806L29.9127 23.6161C29.8544 23.6349 29.8361 23.7126 29.8791 23.7579Z" fill="url(#paint0_linear_194_1150)"/>
<defs>
<linearGradient id="paint0_linear_194_1150" x1="-25.3436" y1="-24.6903" x2="107.039" y2="122.52" gradientUnits="userSpaceOnUse">
<stop offset="0.184358" stop-color="#29ABE2"/>
<stop offset="0.821198" stop-color="#6200D2"/>
</linearGradient>
</defs>
</svg>
