<?xml version="1.0" encoding="UTF-8"?>
<svg xmlns="http://www.w3.org/2000/svg" width="110" height="55" viewBox="0 0 110 55" fill="none">
  <path d="M58.1035 18.2201L58.7994 18.9157C58.825 18.9412 58.825 18.9828 58.7994 19.0084L52.3282 25.4797C52.3085 25.4993 52.2787 25.5042 52.2538 25.4924L48.8945 23.8929C48.8713 23.8817 48.8441 23.8853 48.8244 23.9017L40.0373 31.2242C40.0226 31.2366 40.0138 31.255 40.0138 31.2743V35.3377C40.1045 36.4156 40.0138 36.8115 41.3238 36.8115H68.8347C69.98 36.8115 70.0507 36.3517 70.1444 35.3407C70.1447 35.3387 70.1447 35.3394 70.1447 35.3374V19.9447C70.1447 19.2904 70.4392 19.178 71.125 19.126H71.1259C71.1266 19.126 71.1269 19.126 71.1282 19.126H74.7299C75.8762 19.126 76.5312 17.1609 75.3849 16.0146C74.2442 14.8739 57.0515 0.59968 56.8819 0.458851C56.8766 0.454593 56.8773 0.456558 56.8711 0.453938C55.4729 -0.108725 54.6846 -0.19257 53.2858 0.454263C53.2809 0.456555 53.2756 0.459506 53.2714 0.463108L35.7561 15.0321C34.1274 16.4374 33.9935 16.6696 33.9548 17.3247C33.9165 17.9774 34.2879 18.9691 35.255 19.2864C35.2616 19.2884 35.2685 19.2897 35.2753 19.2897H39.0263C39.0296 19.2897 39.0329 19.2897 39.0361 19.2904C39.6617 19.3837 40.0138 19.6189 40.0138 20.2722V27.6665C40.0138 27.7225 40.0793 27.749 40.1218 27.7126L48.9869 20.137C49.0072 20.1196 49.036 20.1164 49.0596 20.1288L52.7441 22.0513C52.7696 22.0644 52.8004 22.0598 52.8207 22.0395L60.6047 14.2556C60.6286 14.2316 60.6669 14.2297 60.6931 14.2516L61.5463 14.9627C61.5843 14.9941 61.6419 14.9741 61.6524 14.926L62.5904 10.5478C62.6005 10.501 62.5583 10.4594 62.5114 10.4702L57.8143 11.5664C57.7642 11.5782 57.7465 11.6401 57.7828 11.6764L58.6363 12.5299C58.6615 12.5551 58.6619 12.5964 58.6367 12.6219L52.3295 19.0909C52.3095 19.1116 52.278 19.1168 52.2522 19.1034L48.8945 17.3443C48.8713 17.3322 48.8434 17.3348 48.8231 17.3512L42.5765 22.3166C42.5336 22.3506 42.4701 22.3208 42.4701 22.2658V19.2897C42.4701 17.6839 40.8745 16.7551 38.2092 16.519C38.1506 16.5137 38.1263 16.4404 38.1712 16.4027L53.6018 3.40874C53.6041 3.40645 53.6071 3.40448 53.6097 3.40284C54.5238 2.84575 55.11 2.76976 56.3821 3.40186C56.3867 3.40415 56.3913 3.4071 56.3955 3.4107L71.6526 16.3955C71.6984 16.4345 71.6706 16.5095 71.6107 16.5118C68.4322 16.6461 67.3609 17.8559 67.3609 20.1085V34.1328C67.3609 34.1688 67.335 34.1914 67.2987 34.1914H42.9614C42.6338 34.1914 42.6247 34.1227 42.6338 33.8639V31.9297C42.6338 31.91 42.6427 31.8917 42.6578 31.8792L49.1507 26.5225C49.171 26.5058 49.1994 26.5028 49.2227 26.5149L52.9075 28.4374C52.9331 28.4508 52.9642 28.4459 52.9845 28.4253L60.6047 20.643C60.6286 20.6184 60.6672 20.6165 60.6934 20.6384L61.5486 21.3511C61.5859 21.3822 61.6429 21.3632 61.6543 21.316L62.7489 16.7816C62.7607 16.7322 62.7142 16.6886 62.6657 16.7037L58.1307 18.1113C58.0835 18.1257 58.0688 18.1854 58.1035 18.2201Z" fill="white"></path>
  <path d="M9.05042 54.6942H6.61572L5.20742 52.085H2.46747V54.6942H0V45.524H4.96735C6.21189 45.524 7.16167 45.8079 7.81669 46.3755C8.47171 46.9359 8.79922 47.7694 8.79922 48.8754C8.79922 50.0908 8.30436 50.9934 7.31462 51.5829L9.05042 54.6942ZM2.46747 47.5765V50.2182H4.81441C5.30928 50.2182 5.68788 50.1055 5.94988 49.8798C6.21189 49.6542 6.3429 49.3267 6.3429 48.8973C6.3429 48.4679 6.21189 48.1404 5.94988 47.9148C5.68788 47.6891 5.30928 47.5765 4.81441 47.5765H2.46747ZM9.72313 54.6942V45.524H17.6269V47.5218H12.1903V49.2468H17.4304V50.9606H12.1903V52.6964H17.6269V54.6942H9.72313ZM18.4994 54.6942V45.524H21.3488L25.2023 51.2881H25.4207V45.524H27.8223V54.6942H25.0385L21.1303 48.9301H20.9011V54.6942H18.4994ZM37.8877 45.524V47.5765H34.4927V54.6942H32.0364V47.5765H28.6411V45.524H37.8877ZM50.5519 54.6942H48.1175L46.7092 52.085H43.9689V54.6942H41.5018V45.524H46.4691C47.7137 45.524 48.6635 45.8079 49.3185 46.3755C49.9735 46.9359 50.301 47.7694 50.301 48.8754C50.301 50.0908 49.8062 50.9934 48.8161 51.5829L50.5519 54.6942ZM43.9689 47.5765V50.2182H46.3162C46.8111 50.2182 47.1897 50.1055 47.4517 49.8798C47.7137 49.6542 47.8447 49.3267 47.8447 48.8973C47.8447 48.4679 47.7137 48.1404 47.4517 47.9148C47.1897 47.6891 46.8111 47.5765 46.3162 47.5765H43.9689ZM51.2249 54.6942V45.524H59.1287V47.5218H53.6921V49.2468H58.9322V50.9606H53.6921V52.6964H59.1287V54.6942H51.2249ZM67.4003 54.6942L66.8871 53.264H62.564L62.0508 54.6942H59.5073L63.0006 45.524H66.4506L69.9438 54.6942H67.4003ZM63.219 51.4191H66.2321L64.9548 47.8385H64.5071L63.219 51.4191ZM74.8365 45.524C76.5543 45.524 77.8096 45.9389 78.6028 46.7685C79.3964 47.5909 79.793 48.7044 79.793 50.1091C79.793 50.7861 79.702 51.3936 79.5199 51.9323C79.3381 52.4708 79.0577 52.9512 78.6795 53.3734C78.3009 53.7956 77.7841 54.1231 77.129 54.3559C76.4816 54.5816 75.7171 54.6942 74.8365 54.6942H70.4917V45.524H74.8365ZM74.8365 52.6201C75.6372 52.6201 76.2523 52.4089 76.6817 51.9867C77.111 51.5574 77.3255 50.9315 77.3255 50.1091C77.3255 49.2795 77.111 48.6536 76.6817 48.2315C76.2523 47.8021 75.6372 47.5873 74.8365 47.5873H72.9697L72.9589 52.6201H74.8365ZM88.9607 45.524L85.1835 51.7902V54.6942H82.7272V51.7794L78.9497 45.524H81.5589L83.8407 49.4105H84.07L86.3625 45.524H88.9607ZM96.2845 54.9998C94.8071 54.9998 93.7047 54.7378 92.9766 54.2138C92.2489 53.6898 91.8922 52.8785 91.907 51.7794H94.134C94.1923 52.6309 94.9089 53.0567 96.2845 53.0567C96.9323 53.0639 97.4308 52.9729 97.7802 52.7839C98.1297 52.5946 98.3042 52.3398 98.3042 52.0195C98.3042 51.7503 98.1916 51.5357 97.9659 51.3756C97.7475 51.2154 97.3872 51.0952 96.8851 51.0153L95.7388 50.8188C95.4329 50.7677 95.1821 50.7242 94.9856 50.6878C94.7891 50.6439 94.5487 50.586 94.265 50.5129C93.9883 50.433 93.759 50.3492 93.5773 50.2621C93.4024 50.1746 93.2134 50.0619 93.0094 49.9234C92.8129 49.7852 92.6566 49.6322 92.5401 49.4649C92.431 49.2903 92.3363 49.083 92.2561 48.8426C92.1834 48.5953 92.147 48.3261 92.147 48.035C92.147 47.1471 92.5073 46.4554 93.2278 45.9605C93.9483 45.4657 94.9708 45.2184 96.2956 45.2184C97.6201 45.2184 98.6501 45.4657 99.385 45.9605C100.12 46.4554 100.488 47.2706 100.488 48.406H98.2823C98.1369 47.5689 97.4599 47.1507 96.2517 47.1507C95.6841 47.1507 95.2512 47.2414 94.9528 47.4235C94.6617 47.5981 94.5159 47.8385 94.5159 48.144C94.5159 48.6461 94.9165 48.9628 95.7169 49.0938L96.7102 49.2684C96.7905 49.2831 96.9143 49.3047 97.0816 49.3339C97.3364 49.3778 97.529 49.4141 97.66 49.4433C97.7986 49.4649 97.9875 49.5052 98.2279 49.5631C98.468 49.6142 98.6573 49.665 98.7955 49.7161C98.9337 49.7596 99.105 49.8251 99.3087 49.9126C99.5124 49.9925 99.6726 50.0763 99.7888 50.1638C99.9054 50.2509 100.033 50.3639 100.171 50.5021C100.309 50.6331 100.415 50.7749 100.488 50.9279C100.56 51.0733 100.622 51.2482 100.673 51.4519C100.724 51.6484 100.75 51.8632 100.75 52.0961C100.75 53.0423 100.371 53.7664 99.6143 54.2685C98.8574 54.7634 97.7475 55.0074 96.2845 54.9998ZM108.732 54.1375C108.055 54.6687 106.992 54.9343 105.544 54.9343C104.095 54.9343 103.029 54.6687 102.345 54.1375C101.668 53.6063 101.33 52.9113 101.33 52.0522C101.33 50.9826 101.861 50.1818 102.923 49.6506V49.4976C102.625 49.3159 102.392 49.0719 102.225 48.7663C102.058 48.4532 101.974 48.1077 101.974 47.7291C101.974 47.0014 102.276 46.4118 102.88 45.9605C103.484 45.5095 104.372 45.2839 105.544 45.2839C106.715 45.2839 107.603 45.5095 108.207 45.9605C108.819 46.4118 109.125 47.0014 109.125 47.7291C109.125 48.1077 109.037 48.4532 108.863 48.7663C108.688 49.0719 108.451 49.3159 108.153 49.4976V49.6506C109.215 50.1818 109.747 50.9826 109.747 52.0522C109.747 52.9113 109.408 53.6063 108.732 54.1375ZM104.485 48.7555C104.725 48.9301 105.078 49.0175 105.544 49.0175C106.009 49.0175 106.359 48.9301 106.592 48.7555C106.824 48.5734 106.941 48.3261 106.941 48.013C106.941 47.6855 106.821 47.4343 106.581 47.2598C106.341 47.0777 105.995 46.9869 105.544 46.9869C105.092 46.9869 104.743 47.0777 104.495 47.2598C104.255 47.4343 104.135 47.6855 104.135 48.013C104.135 48.3261 104.252 48.5734 104.485 48.7555ZM104.179 52.7072C104.492 52.9401 104.947 53.0567 105.544 53.0567C106.14 53.0567 106.592 52.9401 106.897 52.7072C107.203 52.4672 107.356 52.1505 107.356 51.7575C107.356 51.3644 107.203 51.0517 106.897 50.8188C106.592 50.586 106.14 50.4694 105.544 50.4694C104.947 50.4694 104.492 50.586 104.179 50.8188C103.873 51.0517 103.721 51.3644 103.721 51.7575C103.721 52.1505 103.873 52.4672 104.179 52.7072Z" fill="white"></path>
</svg>
