<svg width="166" height="169" viewBox="0 0 166 169" fill="none" xmlns="http://www.w3.org/2000/svg">
<path d="M4.04294 106.61C3.36726 107.09 3.20807 108.026 3.68739 108.702C4.1667 109.377 5.10301 109.537 5.7787 109.057L4.04294 106.61ZM163.823 62.9093C164.638 63.0559 165.418 62.5138 165.565 61.6985C165.712 60.8831 165.169 60.1033 164.354 59.9567L163.823 62.9093ZM13.7518 88.9557C14.1564 88.2328 13.8984 87.3188 13.1755 86.9142C12.4526 86.5096 11.5386 86.7676 11.1339 87.4905L13.7518 88.9557ZM2.87748 108.645L4.36176 108.429L2.87748 108.645ZM21.4341 113.79C22.22 113.528 22.6447 112.679 22.3827 111.893C22.1207 111.107 21.2712 110.682 20.4853 110.944L21.4341 113.79ZM4.91082 107.834C5.7787 109.057 5.7787 109.057 5.77887 109.057C5.77915 109.057 5.77949 109.057 5.78005 109.056C5.78118 109.056 5.78298 109.054 5.78545 109.053C5.79039 109.049 5.79801 109.044 5.80828 109.036C5.82883 109.022 5.85999 109 5.90157 108.971C5.98473 108.912 6.10956 108.825 6.27446 108.71C6.60425 108.481 7.09427 108.142 7.73172 107.708C9.00667 106.84 10.871 105.589 13.2223 104.066C17.9258 101.02 24.5735 96.8837 32.3463 92.529C47.9261 83.8005 67.8949 74.2689 85.7532 70.79L85.1796 67.8454C66.8368 71.4186 46.5278 81.1451 30.88 89.9117C23.0392 94.3045 16.3356 98.4753 11.5913 101.548C9.21879 103.085 7.33514 104.348 6.04304 105.228C5.39697 105.668 4.89871 106.013 4.5611 106.248C4.3923 106.365 4.26364 106.455 4.17675 106.516C4.13331 106.547 4.1003 106.57 4.07793 106.586C4.06675 106.594 4.05822 106.6 4.05238 106.604C4.04946 106.606 4.04722 106.607 4.04564 106.609C4.04485 106.609 4.04418 106.61 4.04378 106.61C4.04328 106.61 4.04294 106.61 4.91082 107.834ZM85.7532 70.79C103.795 67.2755 121.681 65.0022 135.908 63.7621C143.021 63.142 149.21 62.7812 154.038 62.6518C158.917 62.521 162.279 62.6317 163.823 62.9093L164.354 59.9567C162.464 59.6168 158.807 59.5229 153.957 59.6529C149.056 59.7842 142.806 60.1494 135.647 60.7734C121.331 62.0213 103.339 64.3079 85.1796 67.8454L85.7532 70.79ZM12.4429 88.2231C11.1339 87.4905 11.1339 87.4906 11.1338 87.4908C11.1337 87.4909 11.1335 87.4912 11.1334 87.4915C11.133 87.4921 11.1325 87.493 11.1319 87.4941C11.1306 87.4964 11.1287 87.4998 11.1263 87.5042C11.1213 87.513 11.114 87.5261 11.1045 87.5432C11.0853 87.5775 11.0571 87.6282 11.0203 87.6943C10.9469 87.8263 10.8394 88.0199 10.703 88.267C10.4301 88.7611 10.0411 89.4692 9.57564 90.3269C8.64521 92.0416 7.40709 94.3582 6.17977 96.7605C4.95496 99.158 3.72989 101.662 2.83189 103.745C2.38404 104.784 2.00516 105.747 1.74839 106.554C1.62016 106.957 1.51408 107.347 1.4471 107.703C1.38499 108.034 1.33332 108.451 1.39319 108.862L4.36176 108.429C4.37342 108.509 4.3543 108.477 4.39559 108.257C4.43201 108.063 4.50017 107.8 4.60714 107.464C4.82074 106.792 5.15601 105.932 5.58685 104.933C6.44619 102.939 7.63658 100.503 8.85132 98.1254C10.0636 95.7526 11.2891 93.4593 12.2124 91.7578C12.6739 90.9075 13.0593 90.2059 13.3291 89.7174C13.464 89.4731 13.57 89.2822 13.6421 89.1525C13.6781 89.0877 13.7057 89.0382 13.7242 89.0051C13.7334 88.9885 13.7404 88.976 13.745 88.9678C13.7474 88.9636 13.7491 88.9605 13.7502 88.9585C13.7508 88.9575 13.7512 88.9568 13.7514 88.9563C13.7516 88.9561 13.7517 88.9559 13.7517 88.9558C13.7518 88.9557 13.7518 88.9557 12.4429 88.2231ZM1.39319 108.862C1.53079 109.805 2.20807 110.442 2.73049 110.824C3.30373 111.244 4.0294 111.6 4.79996 111.906C6.35312 112.523 8.36385 113.042 10.4225 113.427C12.4908 113.814 14.6704 114.079 16.5833 114.168C18.4294 114.254 20.2371 114.189 21.4341 113.79L20.4853 110.944C19.8625 111.152 18.5483 111.256 16.7231 111.171C14.9647 111.089 12.9235 110.843 10.9743 110.478C9.01556 110.111 7.21224 109.637 5.9075 109.118C5.2491 108.857 4.78485 108.61 4.50131 108.403C4.16695 108.158 4.32059 108.146 4.36176 108.429L1.39319 108.862Z" fill="url(#paint0_linear_201_1685)"/>
<defs>
<linearGradient id="paint0_linear_201_1685" x1="60.3888" y1="-85.1118" x2="182.286" y2="374.302" gradientUnits="userSpaceOnUse">
<stop offset="0.184358" stop-color="#29ABE2"/>
<stop offset="0.821198" stop-color="#6200D2"/>
</linearGradient>
</defs>
</svg>
