<svg width="98" height="99" viewBox="0 0 98 99" fill="none" xmlns="http://www.w3.org/2000/svg">
<path d="M16.8438 64.8125C9.99493 64.8125 3.0625 66.9164 3.0625 70.9375V89.3125C3.0625 93.3336 9.99493 95.4375 16.8438 95.4375C23.6926 95.4375 30.625 93.3336 30.625 89.3125V70.9375C30.625 66.9164 23.6926 64.8125 16.8438 64.8125ZM16.8438 92.375C9.88131 92.375 6.125 90.2015 6.125 89.3125V84.1062C9.48862 85.626 13.1544 86.3591 16.8438 86.25C20.5331 86.3591 24.1989 85.626 27.5625 84.1062V89.3125C27.5625 90.2015 23.8062 92.375 16.8438 92.375ZM16.8438 83.1875C9.88131 83.1875 6.125 81.014 6.125 80.125V74.9187C9.48862 76.4385 13.1544 77.1716 16.8438 77.0625C20.5331 77.1716 24.1989 76.4385 27.5625 74.9187V80.125C27.5625 81.014 23.8062 83.1875 16.8438 83.1875ZM16.8438 74C9.88131 74 6.125 71.8265 6.125 70.9375C6.125 70.0485 9.88131 67.875 16.8438 67.875C23.8062 67.875 27.5625 70.0485 27.5625 70.9375C27.5625 71.8265 23.8062 74 16.8438 74ZM49 55.625C42.1512 55.625 35.2188 57.7289 35.2188 61.75V89.3125C35.2188 93.3336 42.1512 95.4375 49 95.4375C55.8488 95.4375 62.7812 93.3336 62.7812 89.3125V61.75C62.7812 57.7289 55.8488 55.625 49 55.625ZM49 92.375C42.0376 92.375 38.2812 90.2015 38.2812 89.3125V84.1062C41.6449 85.626 45.3106 86.3591 49 86.25C52.6894 86.3591 56.3551 85.626 59.7188 84.1062V89.3125C59.7188 90.2015 55.9624 92.375 49 92.375ZM49 83.1875C42.0376 83.1875 38.2812 81.014 38.2812 80.125V74.9187C41.6449 76.4385 45.3106 77.1716 49 77.0625C52.6894 77.1716 56.3551 76.4385 59.7188 74.9187V80.125C59.7188 81.014 55.9624 83.1875 49 83.1875ZM49 74C42.0376 74 38.2812 71.8265 38.2812 70.9375V65.7312C41.6449 67.251 45.3106 67.9841 49 67.875C52.6894 67.9841 56.3551 67.251 59.7188 65.7312V70.9375C59.7188 71.8265 55.9624 74 49 74ZM49 64.8125C42.0376 64.8125 38.2812 62.639 38.2812 61.75C38.2812 60.861 42.0376 58.6875 49 58.6875C55.9624 58.6875 59.7188 60.861 59.7188 61.75C59.7188 62.639 55.9624 64.8125 49 64.8125ZM81.1562 46.4375C74.3074 46.4375 67.375 48.5414 67.375 52.5625V89.3125C67.375 93.3336 74.3074 95.4375 81.1562 95.4375C88.0051 95.4375 94.9375 93.3336 94.9375 89.3125V52.5625C94.9375 48.5414 88.0051 46.4375 81.1562 46.4375ZM81.1562 49.5C88.1187 49.5 91.875 51.6735 91.875 52.5625C91.875 53.4515 88.1187 55.625 81.1562 55.625C74.1938 55.625 70.4375 53.4515 70.4375 52.5625C70.4375 51.6735 74.1938 49.5 81.1562 49.5ZM81.1562 92.375C74.1938 92.375 70.4375 90.2015 70.4375 89.3125V84.1062C73.8011 85.626 77.4669 86.3591 81.1562 86.25C84.8456 86.3591 88.5114 85.626 91.875 84.1062V89.3125C91.875 90.2015 88.1187 92.375 81.1562 92.375ZM81.1562 83.1875C74.1938 83.1875 70.4375 81.014 70.4375 80.125V74.9187C73.8011 76.4385 77.4669 77.1716 81.1562 77.0625C84.8456 77.1716 88.5114 76.4385 91.875 74.9187V80.125C91.875 81.014 88.1187 83.1875 81.1562 83.1875ZM81.1562 74C74.1938 74 70.4375 71.8265 70.4375 70.9375V65.7312C73.8011 67.251 77.4669 67.9841 81.1562 67.875C84.8456 67.9841 88.5114 67.251 91.875 65.7312V70.9375C91.875 71.8265 88.1187 74 81.1562 74ZM81.1562 64.8125C74.1938 64.8125 70.4375 62.639 70.4375 61.75V56.5437C73.8011 58.0635 77.4669 58.7966 81.1562 58.6875C84.8456 58.7966 88.5114 58.0635 91.875 56.5437V61.75C91.875 62.639 88.1187 64.8125 81.1562 64.8125ZM8.10491 50.5826C7.96266 50.4405 7.84981 50.2717 7.77282 50.0859C7.69583 49.9002 7.6562 49.7011 7.6562 49.5C7.6562 49.2989 7.69583 49.0998 7.77282 48.914C7.84981 48.7283 7.96266 48.5595 8.10491 48.4174L34.3992 22.1237C35.8349 20.6882 37.782 19.8817 39.8122 19.8817C41.8424 19.8817 43.7895 20.6882 45.2252 22.1237L55.125 32.0222L74.3972 12.75H68.9062C68.0943 12.7491 67.3159 12.4261 66.7418 11.852C66.1676 11.2779 65.8447 10.4994 65.8438 9.6875V6.625C65.8447 5.81306 66.1676 5.03464 66.7418 4.46051C67.3159 3.88639 68.0943 3.56343 68.9062 3.5625H85.75C86.9679 3.56384 88.1356 4.04825 88.9968 4.90946C89.858 5.77066 90.3424 6.93832 90.3438 8.15625V25C90.3428 25.8119 90.0199 26.5904 89.4457 27.1645C88.8716 27.7386 88.0932 28.0616 87.2812 28.0625H84.2188C83.4068 28.0616 82.6284 27.7386 82.0543 27.1645C81.4801 26.5904 81.1572 25.8119 81.1562 25V19.5091L60.5383 40.1263C59.1026 41.5619 57.1555 42.3683 55.1253 42.3683C53.0951 42.3683 51.148 41.5619 49.7123 40.1263L39.8125 30.2278L14.8638 55.1763C14.575 55.4553 14.1882 55.6096 13.7868 55.6061C13.3853 55.6026 13.0012 55.4416 12.7173 55.1577C12.4334 54.8738 12.2724 54.4897 12.2689 54.0882C12.2654 53.6868 12.4197 53.3 12.6987 53.0112L38.7299 26.9799C38.872 26.8377 39.0408 26.7248 39.2265 26.6478C39.4123 26.5708 39.6114 26.5312 39.8125 26.5312C40.0136 26.5312 40.2127 26.5708 40.3985 26.6478C40.5842 26.7248 40.753 26.8377 40.8951 26.9799L51.8771 37.9611C52.7522 38.7961 53.9154 39.262 55.125 39.262C56.3346 39.262 57.4978 38.7961 58.3729 37.9611L81.6049 14.7299C81.8191 14.5158 82.0919 14.37 82.3889 14.311C82.6859 14.2519 82.9937 14.2822 83.2734 14.3981C83.5532 14.514 83.7923 14.7102 83.9606 14.962C84.1288 15.2137 84.2187 15.5097 84.2188 15.8125V25H87.2812V8.15625C87.2809 7.75025 87.1194 7.36098 86.8324 7.0739C86.5453 6.78681 86.156 6.62537 85.75 6.625H68.9062V9.6875H78.0938C78.3966 9.68756 78.6925 9.77741 78.9443 9.94567C79.196 10.1139 79.3923 10.3531 79.5081 10.6328C79.624 10.9126 79.6543 11.2204 79.5953 11.5174C79.5362 11.8144 79.3904 12.0872 79.1763 12.3013L56.2076 35.2701C56.0655 35.4123 55.8967 35.5252 55.7109 35.6022C55.5252 35.6792 55.3261 35.7188 55.125 35.7188C54.9239 35.7188 54.7248 35.6792 54.5391 35.6022C54.3533 35.5252 54.1845 35.4123 54.0424 35.2701L43.0604 24.2889C42.1853 23.4539 41.0221 22.988 39.8125 22.988C38.6029 22.988 37.4397 23.4539 36.5646 24.2889L10.2701 50.5826C10.128 50.7248 9.95921 50.8377 9.77345 50.9147C9.58769 50.9917 9.38858 51.0313 9.1875 51.0313C8.98642 51.0313 8.78731 50.9917 8.60155 50.9147C8.41579 50.8377 8.24703 50.7248 8.10491 50.5826Z" fill="url(#paint0_linear_201_1612)"/>
<defs>
<linearGradient id="paint0_linear_201_1612" x1="-41.7152" y1="-43.6963" x2="213.016" y2="217.776" gradientUnits="userSpaceOnUse">
<stop offset="0.184358" stop-color="#29ABE2"/>
<stop offset="0.821198" stop-color="#6200D2"/>
</linearGradient>
</defs>
</svg>
