<svg width="25" height="25" viewBox="0 0 25 25" fill="none" xmlns="http://www.w3.org/2000/svg">
<path d="M8.88028 9.35323C9.57627 10.8028 10.5251 12.1615 11.7266 13.3631C12.9282 14.5646 14.2869 15.5134 15.7365 16.2094C15.8612 16.2693 15.9235 16.2992 16.0024 16.3222C16.2828 16.404 16.627 16.3453 16.8644 16.1752C16.9313 16.1274 16.9884 16.0702 17.1027 15.9559C17.4523 15.6063 17.6271 15.4315 17.8029 15.3172C18.4658 14.8862 19.3204 14.8862 19.9833 15.3172C20.1591 15.4315 20.3339 15.6063 20.6835 15.9559L20.8783 16.1508C21.4098 16.6822 21.6755 16.948 21.8198 17.2333C22.1069 17.8009 22.1069 18.4712 21.8198 19.0387C21.6755 19.3241 21.4098 19.5898 20.8783 20.1213L20.7207 20.2789C20.1911 20.8085 19.9263 21.0733 19.5662 21.2756C19.1667 21.5 18.5462 21.6614 18.088 21.66C17.6751 21.6588 17.3928 21.5787 16.8284 21.4185C13.795 20.5575 10.9326 18.933 8.54466 16.545C6.15668 14.1571 4.53221 11.2947 3.67124 8.26131C3.51103 7.69687 3.43092 7.41464 3.4297 7.0017C3.42833 6.54347 3.58969 5.92298 3.81411 5.52348C4.01636 5.16345 4.28117 4.89863 4.8108 4.36901L4.96843 4.21138C5.49987 3.67993 5.7656 3.41421 6.05098 3.26987C6.61854 2.9828 7.2888 2.9828 7.85636 3.26987C8.14174 3.41421 8.40747 3.67993 8.93891 4.21138L9.13378 4.40625C9.48338 4.75585 9.65819 4.93065 9.77247 5.10643C10.2035 5.76932 10.2035 6.6239 9.77247 7.28679C9.65819 7.46257 9.48338 7.63738 9.13378 7.98698C9.01947 8.10129 8.96231 8.15845 8.91447 8.22526C8.74446 8.46269 8.68576 8.80695 8.76748 9.0873C8.79048 9.1662 8.82041 9.22854 8.88028 9.35323Z" stroke="white" stroke-width="2" stroke-linecap="round" stroke-linejoin="round"/>
</svg>
